<svg width="37" height="37" viewBox="0 0 37 37" fill="none" xmlns="http://www.w3.org/2000/svg">
<path fill-rule="evenodd" clip-rule="evenodd" d="M24.6667 6.16659H12.3334C8.92762 6.16659 6.16671 8.92749 6.16671 12.3333V24.6666C6.16671 28.0723 8.92762 30.8333 12.3334 30.8333H24.6667C28.0724 30.8333 30.8334 28.0723 30.8334 24.6666V12.3333C30.8334 8.92749 28.0724 6.16659 24.6667 6.16659ZM12.3334 3.08325C7.22474 3.08325 3.08337 7.22462 3.08337 12.3333V24.6666C3.08337 29.7752 7.22474 33.9166 12.3334 33.9166H24.6667C29.7753 33.9166 33.9167 29.7752 33.9167 24.6666V12.3333C33.9167 7.22462 29.7753 3.08325 24.6667 3.08325H12.3334Z" fill="white"/>
<path d="M26.2083 12.3333C27.0598 12.3333 27.75 11.6431 27.75 10.7917C27.75 9.94024 27.0598 9.25 26.2083 9.25C25.3568 9.25 24.6666 9.94024 24.6666 10.7917C24.6666 11.6431 25.3568 12.3333 26.2083 12.3333Z" fill="white"/>
<path fill-rule="evenodd" clip-rule="evenodd" d="M26.2083 18.5001C26.2083 22.7572 22.7571 26.2084 18.5 26.2084C14.2428 26.2084 10.7916 22.7572 10.7916 18.5001C10.7916 14.2429 14.2428 10.7917 18.5 10.7917C22.7571 10.7917 26.2083 14.2429 26.2083 18.5001ZM23.125 18.5001C23.125 21.0545 21.0543 23.1251 18.5 23.1251C15.9456 23.1251 13.875 21.0545 13.875 18.5001C13.875 15.9457 15.9456 13.8751 18.5 13.8751C21.0543 13.8751 23.125 15.9457 23.125 18.5001Z" fill="white"/>
</svg>
