<svg width="34" height="33" viewBox="0 0 34 33" fill="none" xmlns="http://www.w3.org/2000/svg">
<path fill-rule="evenodd" clip-rule="evenodd" d="M23.5755 22.3361C25.5599 19.6626 26.9167 16.7242 26.9167 13.75C26.9167 8.43426 22.4768 4.125 17 4.125C11.5232 4.125 7.08333 8.43426 7.08333 13.75C7.08333 16.7242 8.44006 19.6626 10.4245 22.3361C12.394 24.9895 14.8157 27.1566 16.5422 28.5292C16.8255 28.7543 17.1745 28.7543 17.4578 28.5292C19.1843 27.1566 21.606 24.9895 23.5755 22.3361ZM19.2531 30.6566C22.9141 27.7463 29.75 21.3011 29.75 13.75C29.75 6.91548 24.0416 1.375 17 1.375C9.95837 1.375 4.25 6.91548 4.25 13.75C4.25 21.3011 11.0859 27.7463 14.7469 30.6566C16.0743 31.7118 17.9257 31.7118 19.2531 30.6566Z" fill="#670627"/>
<path fill-rule="evenodd" clip-rule="evenodd" d="M16.9999 11C15.4351 11 14.1666 12.2312 14.1666 13.75C14.1666 15.2688 15.4351 16.5 16.9999 16.5C18.5647 16.5 19.8333 15.2688 19.8333 13.75C19.8333 12.2312 18.5647 11 16.9999 11ZM11.3333 13.75C11.3333 10.7124 13.8703 8.25 16.9999 8.25C20.1295 8.25 22.6666 10.7124 22.6666 13.75C22.6666 16.7876 20.1295 19.25 16.9999 19.25C13.8703 19.25 11.3333 16.7876 11.3333 13.75Z" fill="#670627"/>
</svg>
