<svg width="218" height="27" viewBox="0 0 218 27" fill="none" xmlns="http://www.w3.org/2000/svg">
<path d="M18.8295 7.57832L18.8622 7.54151C20.0828 5.9836 4.84145 0.182207 6.32947 13.0784C7.52947 23.4784 15.8295 21.4117 19.8295 19.0784L22.8295 23.0784C20.1628 24.745 13.2295 27.3784 6.82948 24.5784C-1.17052 21.0784 -0.170519 13.5784 0.329481 9.07835C0.829481 4.57835 4.82947 0.578358 11.8295 0.0783181C18.8295 -0.421722 21.3295 1.57832 22.8295 3.07832L18.8622 7.54151C18.8524 7.55406 18.8415 7.56633 18.8295 7.57832Z" fill="white"/>
<path fill-rule="evenodd" clip-rule="evenodd" d="M26.8295 14.5784C26.4961 10.0783 28.5295 0.878286 39.3295 0.0783181C50.1295 -0.72165 53.4961 7.74503 53.8295 12.0784C53.9961 16.4117 51.7295 25.2784 41.3295 26.0784C30.9295 26.8784 27.3295 18.745 26.8295 14.5784ZM39.8295 4.57837C36.2295 4.17837 34.3295 7.74504 33.8295 9.57837C31.8295 18.0784 37.3295 22.0784 42.3295 21.0784C47.3295 20.0784 47.3295 13.0784 46.8295 10.5784C46.3295 8.07839 44.3295 5.07837 39.8295 4.57837Z" fill="white"/>
<path fill-rule="evenodd" clip-rule="evenodd" d="M79.8295 1.57837V25.5784H91.3295C94.3295 25.245 100.27 22.8836 98.3295 16.5784C96.3295 10.0784 87.3295 12.0784 81.3295 12.5784V2.57837H96.8295V1.07837H79.8295V1.57837ZM96.8295 16.5784C95.2295 12.1784 86.3295 13.0784 81.3295 14.0784V24.3995C82.4961 24.4591 85.7295 24.5784 89.3295 24.5784C93.8295 24.5784 98.8295 22.0784 96.8295 16.5784Z" fill="white"/>
<path d="M57.8295 11.0784V16.0784L74.8295 13.5784V8.07837L57.8295 11.0784Z" fill="white"/>
<path d="M138.329 1.07837V2.57837H148.829V25.5784H150.829V2.57837H161.329V1.07837H138.329Z" fill="white"/>
<path d="M129.829 1.07837V25.5784H130.829H131.329V1.07837H129.829Z" fill="white"/>
<path fill-rule="evenodd" clip-rule="evenodd" d="M107.829 1.57837V12.0784C112.329 11.245 121.629 10.7784 122.829 15.5784C124.029 20.3784 121.996 23.245 120.829 24.0784C120.829 24.0784 119.329 25.5781 117.829 25.5784H105.829V1.57837H107.829ZM107.829 24.0784V13.5784C111.329 11.5784 122.332 12.0783 121.829 19.0781C121.385 25.2727 112.466 25.1447 107.829 24.0784Z" fill="white"/>
<path d="M167.829 1.07837H169.829V23.5784L187.829 1.07837H189.829V25.9061H187.829L188.329 3.57837V3.07837L169.829 25.5784H167.829V1.07837Z" fill="white"/>
<path d="M200.329 1.07837H216.829V2.57837H201.829V12.5784H214.829V14.0784H201.829V24.5784H217.829V25.5784H200.329V1.07837Z" fill="white"/>
</svg>
