<svg width="24" height="24" viewBox="0 0 24 24" fill="none" xmlns="http://www.w3.org/2000/svg">
<mask id="path-1-outside-1_386_2345" maskUnits="userSpaceOnUse" x="-6.38478" y="-6.41421" width="36.7696" height="36.7696" fill="black">
<rect fill="white" x="-6.38478" y="-6.41421" width="36.7696" height="36.7696"/>
<path d="M20.3292 3.32922C20.7197 3.7197 20.7196 4.3529 20.3292 4.74343L13.4142 11.6584L20.3292 18.5734C20.7195 18.964 20.7197 19.5972 20.3292 19.9877C19.9388 20.3781 19.3055 20.3779 18.915 19.9877L12 13.0727L5.08499 19.9877C4.69445 20.3779 4.06122 20.3781 3.67078 19.9877C3.28047 19.5972 3.28054 18.9639 3.67078 18.5734L10.5858 11.6584L3.67078 4.74343C3.28054 4.35289 3.28035 3.71965 3.67078 3.32922C4.06121 2.93879 4.69445 2.93898 5.08499 3.32922L12 10.2442L18.915 3.32922C19.3055 2.93889 19.9387 2.93888 20.3292 3.32922Z"/>
</mask>
<path d="M20.3292 3.32922C20.7197 3.7197 20.7196 4.3529 20.3292 4.74343L13.4142 11.6584L20.3292 18.5734C20.7195 18.964 20.7197 19.5972 20.3292 19.9877C19.9388 20.3781 19.3055 20.3779 18.915 19.9877L12 13.0727L5.08499 19.9877C4.69445 20.3779 4.06122 20.3781 3.67078 19.9877C3.28047 19.5972 3.28054 18.9639 3.67078 18.5734L10.5858 11.6584L3.67078 4.74343C3.28054 4.35289 3.28035 3.71965 3.67078 3.32922C4.06121 2.93879 4.69445 2.93898 5.08499 3.32922L12 10.2442L18.915 3.32922C19.3055 2.93889 19.9387 2.93888 20.3292 3.32922Z" fill="#670627"/>
<path d="M20.3292 3.32922L20.6828 2.97567L20.6827 2.9756L20.3292 3.32922ZM20.3292 4.74343L20.6828 5.09699L20.6828 5.09692L20.3292 4.74343ZM13.4142 11.6584L13.0607 11.3049C12.8654 11.5001 12.8654 11.8167 13.0607 12.012L13.4142 11.6584ZM20.3292 18.5734L20.6829 18.22L20.6828 18.2199L20.3292 18.5734ZM20.3292 19.9877L20.6828 20.3412L20.6828 20.3412L20.3292 19.9877ZM18.915 19.9877L18.5615 20.3412L18.5616 20.3413L18.915 19.9877ZM12 13.0727L12.3536 12.7191C12.1583 12.5238 11.8417 12.5238 11.6464 12.7191L12 13.0727ZM5.08499 19.9877L5.43843 20.3413L5.43855 20.3412L5.08499 19.9877ZM3.67078 19.9877L3.31716 20.3411L3.31723 20.3412L3.67078 19.9877ZM3.67078 18.5734L3.31723 18.2199L3.31711 18.22L3.67078 18.5734ZM10.5858 11.6584L10.9393 12.012C11.1346 11.8167 11.1346 11.5001 10.9393 11.3049L10.5858 11.6584ZM3.67078 4.74343L3.31709 5.09685L3.31723 5.09699L3.67078 4.74343ZM3.67078 3.32922L3.31723 2.97567L3.31722 2.97567L3.67078 3.32922ZM5.08499 3.32922L5.43855 2.97567L5.43841 2.97553L5.08499 3.32922ZM12 10.2442L11.6464 10.5978C11.8417 10.793 12.1583 10.793 12.3536 10.5978L12 10.2442ZM18.915 3.32922L18.5615 2.9756L18.5615 2.97567L18.915 3.32922ZM20.3292 3.32922L19.9757 3.68277C20.1708 3.87792 20.1709 4.19459 19.9756 4.38995L20.3292 4.74343L20.6828 5.09692C21.2683 4.51121 21.2686 3.56148 20.6828 2.97567L20.3292 3.32922ZM20.3292 4.74343L19.9757 4.38988L13.0607 11.3049L13.4142 11.6584L13.7678 12.012L20.6828 5.09699L20.3292 4.74343ZM13.4142 11.6584L13.0607 12.012L19.9757 18.927L20.3292 18.5734L20.6828 18.2199L13.7678 11.3049L13.4142 11.6584ZM20.3292 18.5734L19.9756 18.9269C20.1708 19.1223 20.1707 19.439 19.9757 19.6341L20.3292 19.9877L20.6828 20.3412C21.2686 19.7554 21.2682 18.8057 20.6829 18.22L20.3292 18.5734ZM20.3292 19.9877L19.9757 19.6341C19.7806 19.8292 19.4639 19.8293 19.2684 19.634L18.915 19.9877L18.5616 20.3413C19.1472 20.9266 20.097 20.927 20.6828 20.3412L20.3292 19.9877ZM18.915 19.9877L19.2686 19.6341L12.3536 12.7191L12 13.0727L11.6464 13.4262L18.5615 20.3412L18.915 19.9877ZM12 13.0727L11.6464 12.7191L4.73144 19.6341L5.08499 19.9877L5.43855 20.3412L12.3536 13.4262L12 13.0727ZM5.08499 19.9877L4.73156 19.634C4.53613 19.8293 4.2194 19.8292 4.02433 19.6341L3.67078 19.9877L3.31723 20.3412C3.90305 20.927 4.85277 20.9266 5.43843 20.3413L5.08499 19.9877ZM3.67078 19.9877L4.0244 19.6342C3.82931 19.439 3.82927 19.1222 4.02445 18.9269L3.67078 18.5734L3.31711 18.22C2.73181 18.8057 2.73163 19.7554 3.31716 20.3411L3.67078 19.9877ZM3.67078 18.5734L4.02433 18.927L10.9393 12.012L10.5858 11.6584L10.2322 11.3049L3.31723 18.2199L3.67078 18.5734ZM10.5858 11.6584L10.9393 11.3049L4.02433 4.38988L3.67078 4.74343L3.31723 5.09699L10.2322 12.012L10.5858 11.6584ZM3.67078 4.74343L4.02447 4.39002C3.82917 4.19457 3.82931 3.8778 4.02433 3.68277L3.67078 3.32922L3.31722 2.97567C2.7314 3.5615 2.73191 4.51121 3.31709 5.09685L3.67078 4.74343ZM3.67078 3.32922L4.02433 3.68277C4.21936 3.48775 4.53612 3.48761 4.73158 3.68291L5.08499 3.32922L5.43841 2.97553C4.85277 2.39035 3.90306 2.38984 3.31723 2.97567L3.67078 3.32922ZM5.08499 3.32922L4.73144 3.68277L11.6464 10.5978L12 10.2442L12.3536 9.89067L5.43855 2.97567L5.08499 3.32922ZM12 10.2442L12.3536 10.5978L19.2686 3.68277L18.915 3.32922L18.5615 2.97567L11.6464 9.89067L12 10.2442ZM18.915 3.32922L19.2685 3.68284C19.4637 3.48768 19.7805 3.48768 19.9757 3.68284L20.3292 3.32922L20.6827 2.9756C20.097 2.39009 19.1473 2.39009 18.5615 2.9756L18.915 3.32922Z" fill="#670627" mask="url(#path-1-outside-1_386_2345)"/>
</svg>
